<svg width="767" height="732" viewBox="0 0 767 732" fill="none" xmlns="http://www.w3.org/2000/svg">
<path fill-rule="evenodd" clip-rule="evenodd" d="M302.357 -277.244C331.888 -271.971 361.85 -266.621 393.822 -256.42C394.411 -256.227 395.045 -256.021 395.722 -255.801C441.09 -241.04 679.245 -163.555 750.493 118.077C822.804 403.91 644.649 649.798 384.211 715.684C123.774 781.571 -162.587 635.99 -232.982 357.729C-303.378 79.467 -118.657 -104.988 -83.8394 -135.579C-73.7465 -144.929 -64.2182 -153.286 -54.9335 -161.43C-26.5332 -186.34 -0.412459 -209.251 32.6111 -252.43C53.0116 -280.534 68.2015 -316.471 56.8951 -392.817C107.568 -356.141 167.698 -313.994 206.932 -299.817C239.54 -288.46 270.701 -282.896 302.357 -277.244ZM22.4699 472.009C2.3549 387.903 61.2759 289.215 160.401 262.656C233.978 243.366 305.277 270.735 364.528 293.48C406.864 309.732 443.049 323.622 469.518 316.442C496.599 309.007 529.598 271.812 562.175 235.094L562.175 235.093C594.246 198.945 625.907 163.258 651.108 156.883C705.126 143.217 734.428 195.482 742.887 228.917C751.345 262.352 755.819 325.474 739.753 369.689C723.686 413.905 710.368 432.226 679.895 437.615C661.452 440.694 628.208 420.546 592.852 399.118C552.068 374.401 508.475 347.98 481.553 353.548C453.527 359.615 417.906 395.478 377.656 436C326.636 487.366 268.178 546.219 208.328 561.36C143.507 577.759 121.618 572.92 96.4108 564.41C58.2693 549.956 33.3904 519.515 22.424 471.827L22.4699 472.009ZM526.48 432.86C511.422 427.453 492.756 431.016 475.458 435.392L475.519 435.376C473.507 435.885 471.594 436.354 469.757 436.803C455.798 440.22 446.265 442.554 431.759 453.342C415.657 465.319 401.038 486.844 391.603 500.735L391.061 501.533C381.65 515.386 381.839 524.812 390.448 531.528C399.016 538.212 404.139 531.276 418.557 511.753L418.762 511.475C420.033 509.754 421.259 508.062 422.462 506.4C435.062 489.004 445.251 474.935 479.766 466.203C516.751 456.847 527.043 468.239 537.959 480.323C538.204 480.593 538.448 480.864 538.693 481.135L538.804 481.258C549.907 493.522 551.546 495.333 557.963 489.149C559.902 487.93 561.549 486.301 562.789 484.377C564.028 482.454 564.83 480.283 565.138 478.017C565.445 475.751 565.251 473.446 564.568 471.264C563.886 469.082 562.731 467.077 561.187 465.39L561.101 465.271C554.047 455.557 541.477 438.244 526.48 432.86ZM458.285 603.883C389.093 621.387 353.128 615.534 327.154 603.738L327.305 603.571C326.765 603.383 326.325 603.216 325.948 603.073C323.709 602.225 323.709 602.225 318.15 603.631C312.12 605.622 307.029 609.754 303.845 615.242C302.657 617.086 301.862 619.153 301.507 621.316C301.153 623.478 301.247 625.691 301.784 627.815C302.322 629.939 303.291 631.929 304.631 633.663C305.971 635.397 307.654 636.838 309.576 637.895C368.025 669.059 446.1 645.828 503.123 625.666C543.061 610.421 578.248 584.886 605.098 551.661C607.038 548.808 608.055 545.431 608.015 541.984C607.974 538.538 606.877 535.188 604.871 532.385C602.676 528.3 596.681 522.985 588.87 532.952C571.173 554.637 527.476 586.379 458.285 603.883Z" fill="url(#paint0_linear_94_789)" fill-opacity="0.548"/>
<defs>
<linearGradient id="paint0_linear_94_789" x1="1884.19" y1="-1552.77" x2="-345.567" y2="-579.114" gradientUnits="userSpaceOnUse">
<stop/>
<stop offset="1" stop-color="white" stop-opacity="0"/>
</linearGradient>
</defs>
</svg>
