<svg width="856" height="839" viewBox="0 0 856 839" fill="none" xmlns="http://www.w3.org/2000/svg">
<path fill-rule="evenodd" clip-rule="evenodd" d="M502.821 -43.1641C529.76 -38.3539 557.092 -33.4734 586.258 -24.1677C586.796 -23.9919 587.374 -23.8038 587.991 -23.603C629.377 -10.1378 846.63 60.5461 911.625 317.46C977.589 578.206 815.07 802.513 577.491 862.617C339.911 922.721 78.6841 789.917 14.467 536.078C-49.7501 282.239 118.758 113.973 150.52 86.0667C159.727 77.538 168.419 69.914 176.889 62.485C202.796 39.7608 226.624 18.8606 256.75 -20.5281C275.36 -46.1656 289.216 -78.9489 278.902 -148.594C325.128 -115.137 379.98 -76.6893 415.77 -63.756C445.517 -53.3964 473.943 -48.3207 502.821 -43.1641ZM247.499 640.328C229.149 563.604 282.899 473.578 373.324 449.35C440.443 431.753 505.485 456.72 559.535 477.469C598.156 492.294 631.165 504.965 655.311 498.416C680.015 491.633 710.117 457.702 739.834 424.207C769.091 391.231 797.973 358.676 820.963 352.86C870.239 340.394 896.97 388.072 904.686 418.572C912.402 449.073 916.483 506.655 901.827 546.989C887.171 587.324 875.022 604.037 847.223 608.953C830.399 611.762 800.072 593.382 767.82 573.835C730.615 551.287 690.848 527.185 666.289 532.265C640.723 537.799 608.228 570.514 571.511 607.48C524.968 654.337 471.641 708.025 417.045 721.837C357.913 736.797 337.945 732.383 314.95 724.62C280.156 711.434 257.461 683.665 247.457 640.163L247.499 640.328ZM707.273 604.615C693.536 599.683 676.509 602.933 660.729 606.925L660.784 606.911C658.95 607.375 657.204 607.802 655.529 608.213C642.795 611.33 634.098 613.458 620.866 623.3C606.177 634.226 592.841 653.861 584.234 666.533L583.739 667.262C575.154 679.898 575.327 688.497 583.18 694.623C590.996 700.721 595.669 694.393 608.822 676.584L609.009 676.331C610.166 674.764 611.282 673.223 612.378 671.709L612.384 671.702L612.385 671.701C623.878 655.832 633.173 642.998 664.659 635.032C698.398 626.497 707.786 636.89 717.745 647.913L718.116 648.323L718.414 648.653L718.515 648.765C728.644 659.953 730.139 661.605 735.993 655.964C737.761 654.852 739.264 653.366 740.395 651.611C741.526 649.857 742.257 647.876 742.538 645.809C742.818 643.742 742.641 641.639 742.018 639.649C741.395 637.659 740.343 635.83 738.934 634.291L738.855 634.182C732.42 625.32 720.954 609.527 707.273 604.615ZM645.063 760.628C581.944 776.596 549.135 771.257 525.441 760.496L525.579 760.343C525.088 760.172 524.687 760.021 524.345 759.891L524.341 759.89C522.299 759.116 522.299 759.116 517.228 760.398C511.726 762.215 507.083 765.984 504.178 770.99C503.095 772.672 502.369 774.558 502.045 776.531C501.722 778.504 501.808 780.522 502.298 782.459C502.788 784.397 503.672 786.213 504.895 787.795C506.117 789.377 507.653 790.691 509.406 791.655C562.725 820.084 633.947 798.891 685.966 780.499C722.399 766.593 754.497 743.299 778.991 712.99C780.76 710.387 781.688 707.306 781.651 704.162C781.614 701.018 780.614 697.962 778.784 695.405C776.781 691.679 771.313 686.83 764.187 695.923C748.043 715.704 708.181 744.661 645.063 760.628Z" fill="url(#paint0_linear_94_303)" fill-opacity="0.192"/>
<defs>
<linearGradient id="paint0_linear_94_303" x1="1945.82" y1="-1206.74" x2="-88.2365" y2="-318.54" gradientUnits="userSpaceOnUse">
<stop/>
<stop offset="1" stop-color="white" stop-opacity="0"/>
</linearGradient>
</defs>
</svg>
